<?xml version="1.0" standalone="no"?>
<!DOCTYPE svg PUBLIC "-//W3C//DTD SVG 20010904//EN"
 "http://www.w3.org/TR/2001/REC-SVG-20010904/DTD/svg10.dtd">
<svg version="1.0" xmlns="http://www.w3.org/2000/svg"
 width="480.000000pt" height="270.000000pt" viewBox="0 0 480.000000 270.000000"
 preserveAspectRatio="xMidYMid meet">

<g transform="translate(0.000000,270.000000) scale(0.100000,-0.100000)"
fill="#000000" stroke="none">
<path d="M793 1890 c-49 -11 -100 -55 -127 -108 -53 -104 -77 -305 -44 -367 9
-16 50 -63 92 -104 57 -56 77 -82 82 -110 9 -44 -12 -174 -34 -221 -22 -45
-59 -65 -87 -46 -24 16 -29 60 -17 139 l9 57 -67 0 -67 0 -7 -37 c-3 -21 -6
-76 -6 -123 0 -68 4 -92 20 -118 29 -47 80 -66 157 -59 74 7 109 24 151 71 52
60 101 260 89 370 -7 68 -32 107 -114 174 -83 70 -92 98 -68 222 21 109 47
154 92 158 39 4 46 -15 41 -112 l-3 -66 66 0 66 0 6 68 c7 74 -2 135 -24 169
-27 44 -120 64 -206 43z"/>
<path d="M1680 1889 c-54 -17 -96 -54 -124 -111 -52 -107 -72 -295 -40 -364 9
-19 44 -59 77 -90 80 -72 97 -99 97 -156 0 -59 -26 -186 -45 -214 -20 -31 -63
-36 -87 -12 -18 18 -19 28 -13 87 3 36 9 74 11 84 5 15 -3 17 -64 17 l-69 0
-7 -52 c-26 -219 18 -294 166 -285 132 8 193 75 229 250 40 193 21 272 -82
353 -74 59 -93 87 -93 144 -1 64 31 194 55 224 22 28 72 36 86 14 4 -7 7 -48
5 -90 l-2 -78 64 0 64 0 7 65 c11 101 -7 171 -53 201 -31 20 -134 27 -182 13z"/>
<path d="M3487 1886 c-107 -38 -137 -119 -213 -566 -49 -290 -58 -415 -31
-466 26 -51 44 -59 122 -59 61 0 77 4 113 27 46 31 90 111 116 214 25 95 25
94 -44 94 -57 0 -60 -1 -66 -27 -16 -77 -37 -140 -51 -155 -21 -24 -51 -28
-69 -10 -23 22 -15 95 45 437 68 381 81 420 140 413 26 -3 26 -4 26 -91 l0
-87 62 0 61 0 7 65 c9 76 0 140 -21 173 -32 48 -120 65 -197 38z"/>
<path d="M1175 1868 c-8 -35 -185 -1046 -185 -1058 0 -6 54 -10 154 -10 l153
0 6 38 c4 20 9 52 13 70 l7 32 -87 0 c-62 0 -86 3 -86 13 0 6 14 89 30 182 16
94 30 173 30 178 0 4 34 7 75 7 72 0 75 1 80 25 3 14 7 36 10 50 5 25 5 25
-64 25 -38 0 -72 3 -74 8 -3 4 9 85 26 180 l30 172 88 0 87 0 6 38 c4 20 9 45
12 55 5 16 -7 17 -150 17 -153 0 -156 0 -161 -22z"/>
<path d="M2467 1821 l-37 -69 185 -322 c102 -178 185 -324 185 -326 0 -2 -80
-4 -178 -4 l-178 0 -38 -70 -37 -70 339 0 340 0 -267 465 c-146 255 -268 465
-271 465 -3 0 -22 -31 -43 -69z"/>
<path d="M3845 1878 c-7 -20 -185 -1040 -185 -1060 0 -15 9 -18 65 -18 36 0
65 3 65 7 0 9 67 391 81 461 l10 52 65 0 c54 0 64 -3 64 -17 0 -10 -18 -119
-40 -243 -22 -123 -40 -232 -40 -242 0 -15 9 -18 65 -18 36 0 65 2 65 5 0 7
179 1025 186 1058 l6 28 -69 -3 -68 -3 -40 -230 -41 -230 -67 -3 c-37 -2 -67
1 -67 5 0 10 67 397 76 436 l6 27 -67 0 c-43 0 -67 -4 -70 -12z"/>
<path d="M2397 1698 c-8 -12 -124 -212 -257 -443 -133 -231 -249 -430 -256
-443 l-14 -22 83 0 83 0 188 325 189 326 89 -156 90 -155 79 0 c43 0 79 2 79
4 0 5 -329 578 -335 584 -2 2 -10 -7 -18 -20z"/>
<path d="M2255 1113 c-82 -142 -157 -273 -168 -290 l-19 -33 540 0 540 0 -40
70 -41 70 -373 0 c-206 0 -374 3 -374 6 0 4 39 73 86 155 47 82 84 152 82 156
-10 25 -74 123 -79 123 -3 0 -73 -116 -154 -257z"/>
</g>
</svg>
